# xmcd
#
# Track frame offsets:
#	150
#	16000
#	33352
#	46649
#	62844
#	79646
#	95016
#	109543
#	122880
#	136628
#	151522
#	169495
#	183023
#	199730
#
# Disc length: 2915 seconds
#
# Revision: 1
# Processed by: cddbd v1.5.2PL0 Copyright (c) Steve Scherf et al.
# Submitted via: EasyCDDAExtractor 11.1.0.1
#
DISCID=a00b610e
DTITLE=Various Artist - Mr Music Country
DYEAR=2010
DGENRE=country
TTITLE0=Alan Jaskson - True love is a golden ting
TTITLE1=James Lann - That's why I'm here
TTITLE2=Trace Adkins - Every light in the house
TTITLE3=Karla-Therese Kjellvander and The Rockridge Brothers - Don't look back
TTITLE4=Josh Thompson - Won't be lonely long
TTITLE5=Allan Karl - Don't tell me your troubles
TTITLE6=Roger Miller - Me and Bobby McGee
TTITLE7=Egil Skjelnes - True blue fool
TTITLE8=Ed Bruce - This old hat
TTITLE9=Sanger D "Whitey" Shafer - Gazebo Joe
TTITLE10=Mel McDaniel - C'mon sixty-five
TTITLE11=The Kendalls - Heartaches by the number
TTITLE12=Dierks Bentley - Band of brothers
TTITLE13=Mike Haduck - Ghost riders in the sky
EXTD=
EXTT0=
EXTT1=
EXTT2=
EXTT3=
EXTT4=
EXTT5=
EXTT6=
EXTT7=
EXTT8=
EXTT9=
EXTT10=
EXTT11=
EXTT12=
EXTT13=
PLAYORDER=
